<svg width="23" height="23" viewBox="0 0 23 23" fill="none" xmlns="http://www.w3.org/2000/svg">
<path d="M4.4623 21.0135L5.35596 20.5648L5.35596 20.5648L4.4623 21.0135ZM19.103 21.0135L19.9966 21.4622L19.9966 21.4622L19.103 21.0135ZM1.93218 9.17253H21.6331V7.17253H1.93218V9.17253ZM20.9276 8.46577V9.09897H22.9276V8.46577H20.9276ZM18.8636 20.1608H4.7016V22.1608H18.8636V20.1608ZM2.6377 9.09897V8.46577H0.637695V9.09897H2.6377ZM5.35596 20.5648C3.56828 17.0045 2.6377 13.079 2.6377 9.09897H0.637695C0.637695 13.3909 1.64123 17.6238 3.56863 21.4622L5.35596 20.5648ZM4.7016 20.1608C4.97678 20.1608 5.23086 20.3156 5.35596 20.5648L3.56863 21.4622C3.78438 21.8919 4.22374 22.1608 4.7016 22.1608V20.1608ZM18.2093 20.5648C18.3344 20.3156 18.5885 20.1608 18.8636 20.1608V22.1608C19.3415 22.1608 19.7809 21.8919 19.9966 21.4622L18.2093 20.5648ZM20.9276 9.09897C20.9276 13.079 19.997 17.0045 18.2093 20.5648L19.9966 21.4622C21.924 17.6238 22.9276 13.3909 22.9276 9.09897H20.9276ZM21.6331 9.17253C21.2474 9.17253 20.9276 8.8601 20.9276 8.46577H22.9276C22.9276 7.74754 22.344 7.17253 21.6331 7.17253V9.17253ZM1.93218 7.17253C1.22126 7.17253 0.637695 7.74754 0.637695 8.46577H2.6377C2.6377 8.8601 2.31782 9.17253 1.93218 9.17253V7.17253ZM6.84205 8.68864L11.1899 1.47295L9.47682 0.440746L5.129 7.65643L6.84205 8.68864ZM12.3754 1.47295L16.7232 8.68864L18.4363 7.65643L14.0884 0.440746L12.3754 1.47295ZM10.7826 10.3372V17.5529H12.7826V10.3372H10.7826ZM8.15944 14.9451H15.4058V12.9451H8.15944V14.9451Z" fill="white"/>
</svg>
