<svg width="24" height="24" viewBox="0 0 24 24" fill="none" xmlns="http://www.w3.org/2000/svg">
<path d="M5.25369 9.27417C6.82254 9.92787 8.45728 10.3412 10.1324 10.5093L9.34269 9.14157L6.6499 9.30322C6.3508 9.32116 6.09374 9.09325 6.0758 8.79416C6.05786 8.49506 6.28577 8.23804 6.58486 8.22006L8.73608 8.09093L8.25759 7.26217L5.56479 7.42381C5.2657 7.44175 5.00864 7.21384 4.9907 6.91475C4.97276 6.61566 5.20066 6.35864 5.49976 6.34066L7.65098 6.21153L7.05001 5.17059C6.45074 4.13258 5.12348 3.77695 4.08546 4.37622C3.04745 4.97552 2.69183 6.30279 3.29113 7.3408L4.13925 8.80982L5.25369 9.27417Z" fill="#C99573"/>
<path d="M11.8617 10.5957C12.5817 10.5957 13.2959 10.5513 14.0025 10.463C14.0215 10.3291 14.0319 10.1924 14.0319 10.0532C14.0319 8.45508 12.7364 7.15958 11.1383 7.15958C10.6061 7.15958 10.1079 7.3039 9.67944 7.55459L11.4322 10.5905C11.5752 10.594 11.7183 10.5957 11.8617 10.5957Z" fill="#C99573"/>
<path d="M14.734 8.35087C15.1349 7.29065 15.2083 6.49285 15.2094 6.48062C15.2348 6.18207 15.4975 5.96136 15.796 5.98596C16.0945 6.01135 16.316 6.27398 16.2906 6.57253C16.284 6.65044 16.1333 8.28797 15.1162 10.0902C15.1156 10.1564 15.1129 10.2221 15.109 10.2875C16.2554 10.0669 17.3785 9.72878 18.4697 9.27412L19.1227 9.00201C19.0369 8.79168 18.9173 8.59564 18.7674 8.42271C19.5039 8.09613 20 7.36274 20 6.52659C20 5.37978 19.067 4.44681 17.9202 4.44681C17.7385 4.44681 17.5586 4.47119 17.3825 4.51947C17.1366 3.63345 16.3308 3 15.3883 3C14.4703 3 13.6756 3.59844 13.4078 4.45628C13.3439 4.44995 13.2808 4.44681 13.2181 4.44681C12.2264 4.44681 11.3951 5.14475 11.1882 6.07512C12.7521 6.09447 14.1016 7.02057 14.734 8.35087Z" fill="#C99573"/>
<path d="M18.8871 10.2758C16.6495 11.2081 14.2858 11.6808 11.8617 11.6808C9.43759 11.6808 7.0739 11.2081 4.83631 10.2758C4.45569 10.1172 4.04425 10.4244 4.0882 10.8344C4.26894 12.5214 4.92319 18.6932 5.06957 20.0644C5.15808 20.8937 5.85388 21.5191 6.688 21.5191H17.0353C17.8695 21.5191 18.5652 20.8937 18.6538 20.0644C18.8002 18.6932 19.4544 12.5213 19.6352 10.8344C19.6791 10.4244 19.2677 10.1172 18.8871 10.2758ZM16.0213 17.9021C16.0213 18.2018 15.7783 18.4447 15.4787 18.4447H8.24466C7.94503 18.4447 7.70211 18.2018 7.70211 17.9021V15.0085C7.70211 14.7089 7.94503 14.466 8.24466 14.466H15.4787C15.7783 14.466 16.0213 14.7089 16.0213 15.0085V17.9021Z" fill="#C99573"/>
<path d="M8.78711 15.5511H14.936V17.3596H8.78711V15.5511Z" fill="#C99573"/>
</svg>
