<svg width="20" height="20" viewBox="0 0 20 20" fill="none" xmlns="http://www.w3.org/2000/svg">
<path d="M3.67188 14.375H4.45312V13.5938C4.45312 13.2702 4.71547 13.0078 5.03906 13.0078C5.36266 13.0078 5.625 13.2702 5.625 13.5938V14.375H6.40625C6.72984 14.375 6.99219 14.6373 6.99219 14.9609C6.99219 15.2845 6.72984 15.5469 6.40625 15.5469H5.625V16.3281C5.625 16.6517 5.36266 16.9141 5.03906 16.9141C4.71547 16.9141 4.45312 16.6517 4.45312 16.3281V15.5469H3.67188C3.34828 15.5469 3.08594 15.2845 3.08594 14.9609C3.08594 14.6373 3.34828 14.375 3.67188 14.375Z" fill="white"/>
<path d="M12.7734 14.375H15.1172C15.4408 14.375 15.7031 14.6373 15.7031 14.9609C15.7031 15.2845 15.4408 15.5469 15.1172 15.5469H12.7734C12.4498 15.5469 12.1875 15.2845 12.1875 14.9609C12.1875 14.6373 12.4498 14.375 12.7734 14.375Z" fill="white"/>
<path d="M15.3125 5.66406H12.5781C12.2545 5.66406 11.9922 5.40172 11.9922 5.07812C11.9922 4.75453 12.2545 4.49219 12.5781 4.49219H15.3125C15.6361 4.49219 15.8984 4.75453 15.8984 5.07812C15.8984 5.40172 15.6361 5.66406 15.3125 5.66406Z" fill="white"/>
<path d="M15.3125 7.61719H12.5781C12.2545 7.61719 11.9922 7.35484 11.9922 7.03125C11.9922 6.70766 12.2545 6.44531 12.5781 6.44531H15.3125C15.6361 6.44531 15.8984 6.70766 15.8984 7.03125C15.8984 7.35484 15.6361 7.61719 15.3125 7.61719Z" fill="white"/>
<path d="M6.42988 7.44555C6.20109 7.67438 5.83007 7.67438 5.60125 7.44555L5.03902 6.88332L4.47675 7.44559C4.24797 7.67442 3.87695 7.67442 3.64812 7.44559C3.41929 7.21676 3.41929 6.84578 3.64812 6.61696L4.21039 6.05469L3.64812 5.49242C3.41929 5.26359 3.41929 4.89262 3.64812 4.66379C3.76254 4.54937 3.9125 4.49219 4.06246 4.49219C4.21242 4.49219 4.36238 4.54937 4.47675 4.66383L5.03902 5.22605L5.60129 4.66379C5.71566 4.54937 5.86562 4.49219 6.01558 4.49219C6.16554 4.49219 6.3155 4.54937 6.42988 4.66383C6.65871 4.89266 6.65871 5.26363 6.42988 5.49246L5.86765 6.05469L6.42992 6.61696C6.65875 6.84575 6.65875 7.21676 6.42988 7.44555Z" fill="white"/>
<path d="M18.9844 9.40746V18.2422C18.9844 19.2114 18.1958 20 17.2266 20H1.75781C0.788555 20 0 19.2114 0 18.2422V2.77344C0 1.80418 0.788555 1.01562 1.75781 1.01562H10.5925C11.553 0.374375 12.7062 0 13.9453 0C17.2839 0 20 2.71613 20 6.05469C20 7.29375 19.6256 8.44691 18.9844 9.40746ZM17.8125 18.2422V10.7098C16.7629 11.5832 15.4144 12.1094 13.9453 12.1094C12.4762 12.1094 11.1278 11.5832 10.0781 10.7098V18.8281H17.2266C17.5496 18.8281 17.8125 18.5653 17.8125 18.2422ZM1.75781 18.8281H8.90625V11.0938H1.17188V18.2422C1.17188 18.5653 1.43473 18.8281 1.75781 18.8281ZM1.17188 2.77344V9.92188H8.90625V9.40746C8.265 8.44691 7.89062 7.29375 7.89062 6.05469C7.89062 4.58559 8.41676 3.23715 9.29023 2.1875H1.75781C1.43473 2.1875 1.17188 2.45035 1.17188 2.77344V2.77344ZM13.9453 1.17188C11.2529 1.17188 9.0625 3.3623 9.0625 6.05469C9.0625 8.74707 11.2529 10.9375 13.9453 10.9375C16.6377 10.9375 18.8281 8.74707 18.8281 6.05469C18.8281 3.3623 16.6377 1.17188 13.9453 1.17188Z" fill="white"/>
</svg>
