<svg width="18" height="18" viewBox="0 0 18 18" fill="none" xmlns="http://www.w3.org/2000/svg">
<g clip-path="url(#clip0)">
<path d="M16.2649 8.46361C16.4305 8.57161 16.5097 8.72641 16.5313 8.9172C16.4881 9.18 16.3477 9.3528 16.0705 9.3888C15.8185 9.3888 15.5665 9.3888 15.3145 9.3888C14.3785 9.3888 13.4461 9.3888 12.5101 9.3888C12.2581 9.3888 12.0061 9.3888 11.7541 9.3888C10.8181 9.3888 9.88566 9.3888 8.94966 9.3888C8.69766 9.3888 8.44566 9.3888 8.19366 9.3888C7.25766 9.3888 6.32526 9.3888 5.38926 9.3888C5.13726 9.3888 4.88526 9.3888 4.63326 9.3888C3.69726 9.3888 2.76486 9.3888 1.82886 9.3888C1.64166 9.3852 1.48326 9.3168 1.36806 9.1692C1.32846 9.0432 1.28886 8.9208 1.32126 8.78401C1.37526 8.57521 1.53006 8.44201 1.76046 8.42761C1.89006 8.42041 2.02326 8.42041 2.15286 8.41321C2.39406 8.43121 2.63166 8.42761 2.87286 8.41321C3.12846 8.41681 3.38406 8.42401 3.63966 8.42041C4.33086 8.42041 5.02206 8.41321 5.71326 8.40961C5.96526 8.42761 6.21726 8.42401 6.46926 8.40961C6.69606 8.41321 6.92286 8.41681 7.14606 8.41681C7.85526 8.41321 8.56446 8.40961 9.27366 8.40601C9.52566 8.42401 9.77767 8.42041 10.0297 8.40601C10.9657 8.42041 11.8981 8.42041 12.8341 8.40601C13.0861 8.42401 13.3381 8.42041 13.5901 8.40601C14.3533 8.40961 15.1165 8.41321 15.8761 8.41321C16.0093 8.42401 16.1389 8.42761 16.2649 8.46361Z" fill="#ACAFBD"/>
<path d="M5.53322 1.4436C5.70242 1.4508 5.87162 1.458 6.03722 1.4652C6.05522 1.4904 6.08042 1.4976 6.10922 1.494C6.14522 1.5156 6.17762 1.5372 6.21362 1.5588C6.25682 1.6164 6.30002 1.6704 6.34322 1.728C6.33962 1.7568 6.34682 1.782 6.37202 1.8C6.37562 1.8252 6.38282 1.8468 6.38642 1.872C6.38642 1.908 6.38642 1.9476 6.38642 1.9836C6.37922 2.0196 6.37202 2.0556 6.36482 2.0916C6.33962 2.1384 6.31442 2.1852 6.28562 2.2356C6.15602 2.3688 6.00122 2.4228 5.81762 2.4156C5.62682 2.4084 5.43602 2.4192 5.24162 2.4192C4.97882 2.4192 4.71242 2.4192 4.44962 2.4192C3.87002 2.4192 3.29042 2.412 2.71442 2.4156C2.45162 2.4192 2.26082 2.6064 2.25722 2.8728C2.25002 3.4524 2.25722 4.032 2.26082 4.608C2.26082 4.86 2.26082 5.112 2.26082 5.364C2.25722 5.562 2.25002 5.76 2.25722 5.958C2.26442 6.1488 2.21402 6.3108 2.07722 6.4476C2.03042 6.4728 1.98362 6.498 1.93322 6.5232C1.89722 6.5304 1.86122 6.5376 1.82522 6.5448C1.78922 6.5448 1.74962 6.5448 1.71362 6.5448C1.68842 6.5412 1.66682 6.534 1.64162 6.5304C1.62362 6.5052 1.59842 6.498 1.56962 6.5016C1.50482 6.444 1.44002 6.3864 1.37162 6.3288C1.36082 6.3072 1.35002 6.2856 1.33922 6.2676C1.34282 6.2388 1.33562 6.2136 1.31042 6.1956C1.30322 6.0264 1.29602 5.8572 1.28882 5.688C1.29242 5.2776 1.29962 4.8672 1.29962 4.4532C1.29962 3.9276 1.29242 3.4056 1.29242 2.88C1.32842 2.5344 1.42562 2.214 1.66322 1.9476C1.94762 1.6272 2.31122 1.4904 2.72162 1.4508C3.66482 1.458 4.60082 1.4652 5.53322 1.4436Z" fill="#ACAFBD"/>
<path d="M5.07614 5.21282C5.14814 5.49722 5.08694 5.78882 5.11934 6.07682C5.11574 6.49442 5.11934 6.91562 5.10854 7.33322C5.10134 7.60322 4.89614 7.79762 4.63694 7.80122C4.37774 7.80122 4.17974 7.60682 4.16174 7.33682C4.15814 7.27562 4.15814 7.21802 4.15454 7.15682C4.15454 6.90482 4.15454 6.65282 4.15454 6.40082C4.15814 6.10202 4.16174 5.80322 4.16174 5.50442C4.16534 5.20562 4.27334 5.02922 4.50014 4.95722C4.71614 4.88882 4.90694 4.97522 5.07614 5.21282Z" fill="#ACAFBD"/>
<path d="M11.7181 16.632C11.6965 16.6212 11.6785 16.6104 11.6569 16.596C11.5993 16.5312 11.5417 16.4664 11.4841 16.4016C11.4877 16.3728 11.4805 16.3476 11.4553 16.3296C11.4517 16.3044 11.4445 16.2828 11.4409 16.2576C11.4409 16.2216 11.4409 16.182 11.4409 16.146C11.4481 16.11 11.4553 16.074 11.4625 16.038C11.4877 15.9912 11.5129 15.9444 11.5417 15.894C11.6749 15.7572 11.8369 15.7068 12.0277 15.714C12.2365 15.7212 12.4453 15.7104 12.6541 15.7104C12.9061 15.7104 13.1581 15.7104 13.4101 15.7104C13.9753 15.7104 14.5441 15.7176 15.1093 15.714C15.3721 15.7104 15.5629 15.5232 15.5665 15.2568C15.5737 14.6916 15.5665 14.1228 15.5629 13.5576C15.5629 13.3056 15.5629 13.0536 15.5629 12.8016C15.5665 12.5856 15.5737 12.3696 15.5665 12.1536C15.5593 11.9664 15.6133 11.8116 15.7465 11.6856C15.7933 11.6604 15.8401 11.6316 15.8869 11.6064C15.9229 11.5992 15.9589 11.592 15.9949 11.5848C16.0309 11.5848 16.0705 11.5848 16.1065 11.5848C16.1317 11.5884 16.1533 11.5956 16.1785 11.5992C16.1965 11.6244 16.2217 11.6316 16.2505 11.628C16.3153 11.6856 16.3801 11.7432 16.4449 11.8008C16.4557 11.8224 16.4665 11.8404 16.4809 11.862C16.4773 11.8908 16.4845 11.916 16.5097 11.934C16.5169 12.1248 16.5241 12.3192 16.5313 12.51C16.5277 12.9564 16.5205 13.4028 16.5205 13.8492C16.5205 14.328 16.5241 14.8032 16.5277 15.282C16.4809 15.6816 16.3405 16.0308 16.0309 16.3044C15.7753 16.5348 15.4657 16.6284 15.1345 16.6716C14.2093 16.6608 13.2877 16.6536 12.3625 16.6752C12.1717 16.668 11.9773 16.6608 11.7865 16.6536C11.7721 16.6356 11.7469 16.6284 11.7181 16.632Z" fill="#ACAFBD"/>
<path d="M12.7369 12.87C12.6973 12.6072 12.7369 12.3444 12.7117 12.0816C12.7153 11.574 12.7153 11.0628 12.7189 10.5552C12.7225 10.2204 12.9133 10.0008 13.2013 10.008C13.4821 10.0116 13.6621 10.224 13.6657 10.5552C13.6657 10.7064 13.6693 10.854 13.6729 11.0052C13.6729 11.268 13.6729 11.5344 13.6729 11.7972C13.6693 12.0708 13.6657 12.3444 13.6657 12.618C13.6621 12.924 13.5505 13.104 13.3165 13.1724C13.0897 13.2372 12.8881 13.1328 12.7369 12.87Z" fill="#ACAFBD"/>
<path d="M5.24894 16.6824C4.98614 16.6608 4.71974 16.6608 4.45694 16.6824C3.97454 16.6788 3.49214 16.6752 3.00974 16.6716C2.84414 16.6716 2.67494 16.6644 2.50934 16.6608C2.47694 16.632 2.44094 16.6248 2.40134 16.6356C2.31854 16.6068 2.23574 16.578 2.14934 16.5492C2.13134 16.5276 2.10974 16.5096 2.07734 16.5132C2.04494 16.4952 2.01254 16.4808 1.98374 16.4628C1.85054 16.344 1.72094 16.2252 1.58774 16.1064C1.55894 16.0596 1.53014 16.0128 1.50134 15.966C1.45454 15.858 1.40414 15.75 1.35734 15.642C1.35014 15.6168 1.34654 15.5952 1.33934 15.57C1.35014 15.5304 1.34294 15.4944 1.31414 15.462C1.30694 14.8356 1.29974 14.2128 1.29614 13.5864C1.31414 13.3236 1.31774 13.0572 1.29614 12.7944C1.30334 12.5064 1.31054 12.2184 1.31774 11.9304C1.34294 11.9124 1.35014 11.8872 1.34654 11.8584C1.40414 11.7648 1.48334 11.6856 1.57694 11.6244C1.60574 11.628 1.63094 11.6208 1.64894 11.5956C1.67414 11.592 1.69574 11.5848 1.72094 11.5812C1.75694 11.5812 1.79654 11.5812 1.83254 11.5812C1.86854 11.5884 1.90454 11.5956 1.94054 11.6028C1.98734 11.628 2.03414 11.6532 2.08454 11.682C2.12054 11.718 2.15294 11.7576 2.18894 11.7936C2.31134 12.024 2.23934 12.2724 2.26814 12.5136C2.26814 13.4352 2.26814 14.3604 2.26814 15.282C2.30774 15.5592 2.45174 15.6924 2.72894 15.7104C3.66494 15.7104 4.59734 15.7104 5.53334 15.7104C5.73494 15.732 5.94374 15.6888 6.14174 15.7644C6.19214 15.8076 6.24254 15.8508 6.28934 15.894C6.31454 15.9408 6.33974 15.9876 6.36854 16.038C6.37574 16.074 6.38294 16.11 6.39014 16.146C6.39014 16.182 6.39014 16.2216 6.39014 16.2576C6.38654 16.2828 6.37934 16.3044 6.37574 16.3296C6.35054 16.3476 6.34334 16.3728 6.34694 16.4016C6.29294 16.4628 6.23894 16.5276 6.18854 16.5888C6.14174 16.614 6.09134 16.6356 6.04454 16.6608C5.77454 16.668 5.51174 16.6752 5.24894 16.6824Z" fill="#ACAFBD"/>
<path d="M9.24124 12.6612C9.19804 13.0284 9.06484 13.1616 8.69764 13.1976C8.52844 13.1544 8.40244 13.0536 8.30884 12.9096C8.29804 12.816 8.28004 12.7224 8.28004 12.6252C8.27644 11.9376 8.27644 11.25 8.28004 10.5624C8.28004 10.2276 8.47084 10.008 8.75524 10.008C9.04324 10.008 9.23404 10.224 9.23404 10.5588C9.23764 11.0052 9.23764 11.4552 9.24124 11.9016C9.24124 12.1572 9.24124 12.4092 9.24124 12.6612Z" fill="#ACAFBD"/>
<path d="M11.1456 10.7532C11.142 11.3508 11.1384 11.9484 11.1348 12.5424C11.1348 12.6072 11.1384 12.6756 11.1312 12.7404C11.1096 12.996 10.908 13.1868 10.6596 13.1868C10.404 13.1868 10.1916 12.9924 10.1844 12.726C10.1736 12.4272 10.1772 12.1284 10.1736 11.8296C10.1736 11.5776 10.1736 11.3256 10.1736 11.0736C10.1772 10.9116 10.188 10.7532 10.1808 10.5912C10.1736 10.3644 10.2312 10.1772 10.44 10.062C10.6452 9.9504 10.8324 10.008 11.0052 10.1376C11.16 10.3176 11.1276 10.5408 11.1456 10.7532Z" fill="#ACAFBD"/>
<path d="M12.6541 1.4436C12.9169 1.4652 13.1833 1.4652 13.4461 1.4436C13.9213 1.4472 14.3965 1.4508 14.8753 1.4544C15.0229 1.4544 15.1741 1.4616 15.3217 1.4616C15.3541 1.4868 15.3901 1.4976 15.4297 1.4868C15.4549 1.494 15.4765 1.4976 15.5017 1.5048C15.6097 1.5516 15.7177 1.602 15.8257 1.6488C15.8725 1.6776 15.9193 1.7064 15.9661 1.7352C16.0741 1.8504 16.1857 1.9692 16.2937 2.0844C16.3081 2.1096 16.3189 2.1312 16.3333 2.1564C16.3693 2.2284 16.4053 2.3004 16.4413 2.3724C16.4593 2.4336 16.4773 2.4912 16.4953 2.5524C16.4845 2.592 16.4917 2.628 16.5205 2.6604C16.5277 3.3084 16.5349 3.9564 16.5385 4.608C16.5205 4.8708 16.5169 5.1372 16.5385 5.4C16.5313 5.6628 16.5241 5.9292 16.5169 6.192C16.4917 6.21 16.4845 6.2352 16.4881 6.264C16.4269 6.3576 16.3549 6.4368 16.2577 6.498C16.2289 6.4944 16.2037 6.5016 16.1857 6.5268C16.1605 6.5304 16.1389 6.5376 16.1137 6.5412C16.0777 6.5412 16.0381 6.5412 16.0021 6.5412C15.9661 6.534 15.9301 6.5268 15.8941 6.5196C15.8473 6.4944 15.8005 6.4656 15.7501 6.4404C15.7069 6.39 15.6637 6.3432 15.6205 6.2928C15.5413 6.0948 15.5881 5.886 15.5665 5.6844C15.5665 4.7484 15.5665 3.816 15.5665 2.88C15.5485 2.5992 15.4189 2.4588 15.1381 2.4192C14.2165 2.4192 13.2913 2.4192 12.3697 2.4192C12.1465 2.394 11.9197 2.4444 11.7001 2.3724C11.6461 2.3256 11.5921 2.2824 11.5417 2.2356C11.5165 2.1888 11.4913 2.142 11.4625 2.0916C11.4553 2.0556 11.4481 2.0196 11.4409 1.9836C11.4409 1.9476 11.4409 1.908 11.4409 1.872C11.4445 1.8468 11.4517 1.8252 11.4553 1.8C11.4805 1.782 11.4877 1.7604 11.4841 1.728C11.5453 1.6344 11.6245 1.5588 11.7181 1.4976C11.7469 1.5012 11.7721 1.494 11.7901 1.4688C12.0781 1.458 12.3661 1.4508 12.6541 1.4436Z" fill="#ACAFBD"/>
<path d="M8.26929 5.86082C8.27289 5.74562 8.29089 5.63042 8.27649 5.51882C8.22609 5.10122 8.64369 4.74482 9.08289 5.04722C9.20529 5.18762 9.24489 5.35322 9.24489 5.53682C9.24129 6.11642 9.24129 6.69962 9.23769 7.27922C9.23409 7.58522 9.03609 7.79762 8.76249 7.79762C8.48529 7.79762 8.29089 7.58522 8.28369 7.27922C8.28009 7.05962 8.27649 6.83642 8.27289 6.61322C8.28369 6.36482 8.28369 6.11282 8.26929 5.86082Z" fill="#ACAFBD"/>
<path d="M6.0805 5.25241C6.1453 5.11921 6.2461 5.02561 6.3721 4.95361C6.7897 4.89601 7.0093 5.08321 7.0093 5.50081C7.0129 5.99401 7.0129 6.49081 7.0165 6.98401C7.0129 7.05961 7.0093 7.13881 7.0093 7.21441C7.0057 7.70401 6.7033 7.90561 6.2533 7.71481C6.1561 7.61401 6.0625 7.50961 6.0625 7.36201C6.0697 6.66361 6.0445 5.95801 6.0805 5.25241Z" fill="#ACAFBD"/>
<path d="M5.11556 12.4488C5.11196 12.5028 5.10836 12.5532 5.10836 12.6072C5.10476 13.0644 4.86356 13.2552 4.42436 13.1508C4.33436 13.0824 4.25516 13.0104 4.19756 12.9132C4.20116 12.8844 4.19756 12.8592 4.16876 12.8412C4.16516 12.1464 4.16156 11.4516 4.15796 10.7568C4.16156 10.7028 4.16516 10.6488 4.16516 10.5984C4.16516 10.1376 4.40636 9.9432 4.84916 10.0512C4.93916 10.116 5.02196 10.1916 5.07956 10.2888C5.07596 10.3176 5.08316 10.3428 5.10836 10.3608C5.10836 11.0556 5.11196 11.7504 5.11556 12.4488Z" fill="#ACAFBD"/>
<path d="M12.7117 5.74919C12.7153 5.66999 12.7189 5.59439 12.7189 5.51519C12.7189 5.03999 12.9961 4.84199 13.4461 4.99319C13.5073 5.06519 13.5721 5.13719 13.6333 5.20919C13.6297 5.23799 13.6333 5.26319 13.6621 5.28119C13.6621 6.00479 13.6621 6.72479 13.6621 7.44839C13.5937 7.59959 13.4929 7.71479 13.3417 7.78319C12.9241 7.82279 12.7225 7.64279 12.7225 7.22879C12.7189 6.73919 12.7153 6.24599 12.7117 5.74919Z" fill="#ACAFBD"/>
<path d="M6.05884 12.4056C6.07324 12.1428 6.07324 11.88 6.05884 11.6172C6.06244 11.196 6.06964 10.7784 6.07324 10.3572C6.09844 10.3392 6.10564 10.314 6.10204 10.2852C6.26764 10.0548 6.44404 9.96842 6.65284 10.0224C6.87964 10.08 6.99844 10.2456 7.02364 10.5444C7.02364 10.8072 7.02364 11.07 7.02364 11.3328C7.02004 11.7648 7.02004 12.1932 7.01644 12.6252C7.01644 12.924 6.90484 13.1004 6.67804 13.1724C6.46204 13.2408 6.27484 13.158 6.10204 12.9168C6.10564 12.888 6.09844 12.8628 6.07324 12.8448C6.06604 12.6936 6.06244 12.5496 6.05884 12.4056Z" fill="#ACAFBD"/>
<path d="M11.1455 6.43679C11.1311 6.68879 11.1311 6.94079 11.1455 7.19279C11.1275 7.31519 11.1419 7.44479 11.0735 7.55639C10.9511 7.76159 10.7603 7.81919 10.5371 7.79759C10.3859 7.72919 10.2671 7.62479 10.1987 7.47359C10.1627 6.77159 10.1807 6.07319 10.1879 5.37119C10.1915 5.11559 10.4219 4.9284 10.6703 4.9356C10.9259 4.9428 11.1275 5.14079 11.1347 5.41079C11.1419 5.75279 11.1419 6.09479 11.1455 6.43679Z" fill="#ACAFBD"/>
<path d="M14.4 17.496C16.4678 17.496 18.144 15.8197 18.144 13.752C18.144 11.6842 16.4678 10.008 14.4 10.008C12.3323 10.008 10.656 11.6842 10.656 13.752C10.656 15.8197 12.3323 17.496 14.4 17.496Z" fill="#ACAFBD"/>
<path d="M16.6177 13.4604C16.6465 13.536 16.6609 13.6332 16.6681 13.7412C16.6681 13.7448 16.6681 13.752 16.6681 13.7556C16.6609 13.878 16.6393 13.9716 16.6069 14.0364C16.5817 14.0832 16.5277 14.112 16.4665 14.112H16.3009C16.0201 14.112 15.7393 14.112 15.4585 14.112C15.3829 14.112 15.3073 14.112 15.2317 14.112C14.9509 14.112 14.6701 14.112 14.3893 14.112C14.3137 14.112 14.2381 14.112 14.1625 14.112C13.8817 14.112 13.6009 14.112 13.3201 14.112C13.2445 14.112 13.1689 14.112 13.0933 14.112C12.8125 14.112 12.5317 14.112 12.2509 14.112C12.1969 14.1084 12.1501 14.0616 12.1141 13.9536C12.1105 13.9464 12.1105 13.9392 12.1105 13.932C12.0997 13.8384 12.0889 13.7484 12.0997 13.6476C12.1141 13.4856 12.1609 13.3848 12.2329 13.374C12.2653 13.3704 12.2977 13.3668 12.3301 13.3668C12.3445 13.3668 12.3589 13.3668 12.3697 13.3704C12.4309 13.3776 12.4885 13.3776 12.5497 13.3704C12.5605 13.3704 12.5713 13.3668 12.5821 13.3704C12.6541 13.374 12.7261 13.3776 12.7981 13.3776C12.9997 13.3776 13.2049 13.374 13.4065 13.3704C13.4173 13.3704 13.4245 13.3704 13.4353 13.374C13.5001 13.3848 13.5685 13.3848 13.6333 13.374C13.6441 13.374 13.6549 13.3704 13.6621 13.374C13.7233 13.3776 13.7881 13.3812 13.8493 13.3812C14.0581 13.3812 14.2669 13.3776 14.4721 13.374C14.4829 13.374 14.4901 13.374 14.5009 13.3776C14.5657 13.3884 14.6341 13.3884 14.6989 13.3776C14.7097 13.3776 14.7169 13.374 14.7277 13.3776C14.9977 13.3884 15.2677 13.3884 15.5377 13.3776C15.5485 13.3776 15.5593 13.3776 15.5701 13.3812C15.6349 13.392 15.7033 13.3884 15.7681 13.3812C15.7753 13.3812 15.7861 13.3812 15.7933 13.3812C16.0165 13.3848 16.2433 13.3848 16.4665 13.3884C16.5385 13.3704 16.5961 13.4064 16.6177 13.4604Z" fill="white"/>
<path d="M14.8103 15.9912C14.7347 16.02 14.6375 16.0344 14.5295 16.0416C14.5259 16.0416 14.5187 16.0416 14.5151 16.0416C14.3927 16.0344 14.2991 16.0128 14.2343 15.9804C14.1875 15.9552 14.1587 15.9012 14.1587 15.84V15.6744C14.1587 15.3936 14.1587 15.1128 14.1587 14.832C14.1587 14.7564 14.1587 14.6808 14.1587 14.6052C14.1587 14.3244 14.1587 14.0436 14.1587 13.7628C14.1587 13.6872 14.1587 13.6116 14.1587 13.536C14.1587 13.2552 14.1587 12.9744 14.1587 12.6936C14.1587 12.618 14.1587 12.5424 14.1587 12.4668C14.1587 12.186 14.1587 11.9052 14.1587 11.6244C14.1623 11.5704 14.2091 11.5236 14.3171 11.4876C14.3243 11.484 14.3315 11.484 14.3387 11.484C14.4323 11.4732 14.5223 11.4624 14.6231 11.4732C14.7851 11.4876 14.8859 11.5344 14.8967 11.6064C14.9003 11.6388 14.9039 11.6712 14.9039 11.7036C14.9039 11.718 14.9039 11.7324 14.9003 11.7432C14.8931 11.8044 14.8931 11.862 14.9003 11.9232C14.9003 11.934 14.9039 11.9448 14.9003 11.9556C14.8967 12.0276 14.8931 12.0996 14.8931 12.1716C14.8931 12.3732 14.8967 12.5784 14.9003 12.78C14.9003 12.7908 14.9003 12.798 14.8967 12.8088C14.8859 12.8736 14.8859 12.942 14.8967 13.0068C14.8967 13.0176 14.9003 13.0284 14.8967 13.0356C14.8931 13.0968 14.8895 13.1616 14.8895 13.2228C14.8895 13.4316 14.8931 13.6404 14.8967 13.8456C14.8967 13.8564 14.8967 13.8636 14.8931 13.8744C14.8823 13.9392 14.8823 14.0076 14.8931 14.0724C14.8931 14.0832 14.8967 14.0904 14.8931 14.1012C14.8823 14.3712 14.8823 14.6412 14.8931 14.9112C14.8931 14.922 14.8931 14.9328 14.8895 14.9436C14.8787 15.0084 14.8823 15.0768 14.8895 15.1416C14.8895 15.1488 14.8895 15.1596 14.8895 15.1668C14.8859 15.39 14.8859 15.6168 14.8823 15.84C14.9003 15.912 14.8643 15.9696 14.8103 15.9912Z" fill="white"/>
</g>
<defs>
<clipPath id="clip0">
<rect width="18" height="18" fill="white"/>
</clipPath>
</defs>
</svg>
