<svg width="24" height="24" viewBox="0 0 24 24" fill="none" xmlns="http://www.w3.org/2000/svg">
<path d="M15.6912 17.6213H4.04413V18.9449H15.6912V17.6213Z" fill="white"/>
<path d="M11.9632 6.96693H7.88236C7.51684 6.96693 7.22058 7.26319 7.22058 7.62871C7.22058 7.99423 7.51684 8.29049 7.88236 8.29049H11.9632C12.3287 8.29049 12.625 7.99423 12.625 7.62871C12.625 7.26319 12.3287 6.96693 11.9632 6.96693Z" fill="white"/>
<path d="M15.0515 10.0552H7.88236C7.51684 10.0552 7.22058 10.3514 7.22058 10.7169C7.22058 11.0825 7.51684 11.3787 7.88236 11.3787H15.0515C15.417 11.3787 15.7132 11.0825 15.7132 10.7169C15.7132 10.3514 15.417 10.0552 15.0515 10.0552Z" fill="white"/>
<path d="M18.61 1.1357C18.3724 1.02893 18.0947 1.07108 17.8997 1.24335L16.0466 2.88275L14.1912 1.2237C13.9399 0.998906 13.5601 0.998906 13.3088 1.2237L11.4559 2.88075L9.60273 1.2237C9.35147 0.998906 8.97186 0.998906 8.72059 1.2237L6.86522 2.88275L5.01207 1.24335C4.8173 1.07129 4.53936 1.02914 4.30177 1.1357C4.06443 1.24268 3.91178 1.47872 3.91178 1.73902V13.5184H1.66178C1.29626 13.5184 1 13.8147 1 14.1802V15.7905C1 17.5298 2.41507 18.9449 4.15439 18.9449V17.6213C3.14478 17.6213 2.32353 16.7999 2.32353 15.7905V14.842H12.6912V15.7905C12.6912 17.5298 14.1062 18.9449 15.8456 18.9449C17.5849 18.9449 19 17.5298 19 15.7905V1.73898C19 1.47868 18.8474 1.24268 18.61 1.1357ZM17.6765 15.7905C17.6765 16.7999 16.855 17.6213 15.8456 17.6213C14.8362 17.6213 14.0147 16.7999 14.0147 15.7905V14.1802C14.0147 13.8147 13.7185 13.5184 13.353 13.5184H5.23531V3.20788L6.42936 4.26429C6.68083 4.48665 7.0589 4.48553 7.30882 4.26186L9.16177 2.60481L11.0147 4.26165C11.266 4.48644 11.6458 4.48644 11.8971 4.26165L13.7502 2.6046L15.6032 4.26165C15.8533 4.48532 16.2314 4.4862 16.4826 4.26408L17.6765 3.20791V15.7905Z" fill="white"/>
</svg>
